<svg width="15" height="21" viewBox="0 0 15 21" fill="none" xmlns="http://www.w3.org/2000/svg">
<path d="M14.2578 5.42188C14.7266 5.89062 15 6.51562 15 7.17969V18C15 19.4062 13.8672 20.5 12.5 20.5H2.5C1.09375 20.5 0 19.4062 0 18V3C0 1.63281 1.09375 0.5 2.5 0.5H8.32031C8.98438 0.5 9.60938 0.773438 10.0781 1.24219L14.2578 5.42188ZM8.75 1.86719V6.125C8.75 6.47656 9.02344 6.75 9.375 6.75H13.6328C13.5938 6.59375 13.5156 6.4375 13.3594 6.28125L9.21875 2.14062C9.0625 1.98438 8.90625 1.90625 8.75 1.86719ZM13.75 18V8H9.375C8.32031 8 7.5 7.17969 7.5 6.125V1.75H2.5C1.79688 1.75 1.25 2.33594 1.25 3V18C1.25 18.7031 1.79688 19.25 2.5 19.25H12.5C13.1641 19.25 13.75 18.7031 13.75 18ZM7.89062 11.8281C8.16406 12.2969 8.51562 12.7266 8.90625 13.0781C9.375 13 10.3125 12.8438 10.9375 12.8438C11.7969 12.8438 12.5 13.5469 12.5 14.3672C12.5 15.2266 11.8359 15.8516 10.9766 15.8516C10.1562 15.8516 8.98438 15.1484 8.51562 14.8359C7.65625 15.0312 6.91406 15.2266 6.25 15.5C5.70312 16.4375 5.23438 17.1406 5 17.4531C4.72656 17.8047 4.29688 18 3.86719 18C3.08594 18 2.5 17.4141 2.5 16.6328C2.5 16.2422 2.61719 15.8906 2.89062 15.6172C3.4375 15.0703 4.17969 14.6016 5.07812 14.1719C5.46875 13.4297 5.82031 12.6484 6.09375 11.9062C5.54688 10.5391 5.54688 9.40625 5.54688 9.40625C5.54688 8.625 6.17188 8 6.91406 8C7.69531 8 8.32031 8.625 8.32031 9.40625C8.32031 9.60156 8.28125 10.5781 7.89062 11.8281ZM4.10156 16.7891C4.25781 16.5547 4.57031 16.125 4.96094 15.4609C4.49219 15.7344 4.02344 16.0469 3.67188 16.4375C3.63281 16.4766 3.59375 16.5156 3.59375 16.5938C3.59375 16.9062 3.94531 16.9844 4.10156 16.7891ZM6.91406 9.13281C6.75781 9.13281 6.64062 9.25 6.64062 9.40625C6.64062 9.44531 6.64062 10.1875 6.95312 11.0859C7.03125 10.7734 7.1875 9.99219 7.1875 9.40625C7.1875 9.25 7.07031 9.13281 6.91406 9.13281ZM6.25 14.2891C6.875 14.0938 7.5 13.9375 8.08594 13.7812C7.65625 13.3906 7.30469 12.9609 7.07031 12.5312C6.79688 13.1562 6.52344 13.7812 6.25 14.2891ZM10.9375 13.9766C10.4688 13.9766 9.45312 14.1328 9.41406 14.1328C9.80469 14.3672 10.625 14.7578 10.9766 14.7578C11.2109 14.7578 11.3672 14.6016 11.3672 14.4062C11.3672 14.1328 11.1719 13.9766 10.9375 13.9766Z" fill="#FE4D16"/>
</svg>
