<svg width="20" height="17" viewBox="0 0 20 17" fill="none" xmlns="http://www.w3.org/2000/svg">
<path d="M16.0938 8.14868C16.2812 8.14868 16.4375 8.14868 16.5938 8.11743C16.75 8.11743 16.8438 8.05493 17 8.02368V14.6487C17 15.4924 16.3125 16.1487 15.5 16.1487H4.5C3.65625 16.1487 3 15.4924 3 14.6487V8.02368C3.125 8.05493 3.21875 8.11743 3.34375 8.11743C3.53125 8.14868 3.6875 8.14868 3.875 8.14868C4.25 8.14868 4.625 8.11743 4.96875 7.99243V12.1487H15V7.99243C15.3438 8.11743 15.7188 8.14868 16.0938 8.14868ZM18.0938 3.39868C19.0312 4.86743 18.2188 6.89868 16.4688 7.14868C16.3438 7.14868 16.2188 7.14868 16.0938 7.14868C15.2812 7.14868 14.5625 6.80493 14.0625 6.27368C13.5625 6.80493 12.8438 7.14868 12.0312 7.14868C11.2188 7.14868 10.4688 6.80493 9.96875 6.27368C9.5 6.80493 8.75 7.14868 7.9375 7.14868C7.125 7.14868 6.40625 6.80493 5.90625 6.27368C5.40625 6.80493 4.6875 7.14868 3.875 7.14868C3.75 7.14868 3.625 7.14868 3.5 7.14868C1.75 6.89868 0.9375 4.86743 1.875 3.39868L3.65625 0.586182C3.8125 0.304932 4.09375 0.148682 4.40625 0.148682H15.5625C15.875 0.148682 16.1562 0.304932 16.3125 0.586182L18.0938 3.39868Z" fill="#003479"/>
</svg>
