<svg width="16" height="17" viewBox="0 0 16 17" fill="none" xmlns="http://www.w3.org/2000/svg">
<path d="M5.5 0.148682C6.3125 0.148682 7 0.836182 7 1.64868V5.64868C7 6.49243 6.3125 7.14868 5.5 7.14868H1.5C0.65625 7.14868 0 6.49243 0 5.64868V1.64868C0 0.836182 0.65625 0.148682 1.5 0.148682H5.5ZM14.5 9.14868C15.3125 9.14868 16 9.83618 16 10.6487V14.6487C16 15.4924 15.3125 16.1487 14.5 16.1487H10.5C9.65625 16.1487 9 15.4924 9 14.6487V10.6487C9 9.83618 9.65625 9.14868 10.5 9.14868H14.5ZM14.5 0.148682C15.3125 0.148682 16 0.836182 16 1.64868V5.64868C16 6.49243 15.3125 7.14868 14.5 7.14868H10.5C9.65625 7.14868 9 6.49243 9 5.64868V1.64868C9 0.836182 9.65625 0.148682 10.5 0.148682H14.5ZM5.5 9.14868C6.3125 9.14868 7 9.83618 7 10.6487V14.6487C7 15.4924 6.3125 16.1487 5.5 16.1487H1.5C0.65625 16.1487 0 15.4924 0 14.6487V10.6487C0 9.83618 0.65625 9.14868 1.5 9.14868H5.5Z" fill="#003479"/>
</svg>
