<svg width="19" height="17" viewBox="0 0 19 17" fill="none" xmlns="http://www.w3.org/2000/svg">
<path d="M14.5 13.1487C15.3125 13.1487 16 13.8362 16 14.6487C16 15.4924 15.3125 16.1487 14.5 16.1487C13.6562 16.1487 13 15.4924 13 14.6487C13 13.8362 13.6562 13.1487 14.5 13.1487ZM5.5 13.1487C6.3125 13.1487 7 13.8362 7 14.6487C7 15.4924 6.3125 16.1487 5.5 16.1487C4.65625 16.1487 4 15.4924 4 14.6487C4 13.8362 4.65625 13.1487 5.5 13.1487ZM17.7812 1.55493C17.9688 1.80493 18.0312 2.14868 17.9375 2.42993L16.2188 8.42993C16.0938 8.86743 15.7188 9.14868 15.2812 9.14868H5.3125L5.59375 10.6487H15.25C15.6562 10.6487 16 10.9924 16 11.3987C16 11.8362 15.6562 12.1487 15.25 12.1487H5C4.625 12.1487 4.3125 11.8987 4.25 11.5549L2.375 1.64868H0.75C0.3125 1.64868 0 1.33618 0 0.898682C0 0.492432 0.3125 0.148682 0.75 0.148682H3C3.34375 0.148682 3.65625 0.429932 3.71875 0.773682L3.78125 1.14868H16.9688C17.3125 1.14868 17.5938 1.30493 17.7812 1.55493Z" fill="#003479"/>
</svg>
