<svg width="14" height="17" viewBox="0 0 14 17" fill="none" xmlns="http://www.w3.org/2000/svg">
<path d="M7 8.14868C4.78125 8.14868 3 6.36743 3 4.14868C3 1.96118 4.78125 0.148682 7 0.148682C9.1875 0.148682 11 1.96118 11 4.14868C11 6.36743 9.1875 8.14868 7 8.14868ZM9.8125 9.80493C12.2188 10.3674 14 12.5237 14 15.0862C14 15.6799 13.5 16.1487 12.9062 16.1487H1.0625C0.46875 16.1487 0 15.6799 0 15.0862C0 12.5237 1.75 10.3674 4.15625 9.80493L5.5 15.1487L6.5 10.8987L5.5 9.14868H8.5L7.5 10.8987L8.46875 15.1487L9.8125 9.80493Z" fill="#003479"/>
</svg>
